<svg viewBox="0 0 24 24" xmlns="http://www.w3.org/2000/svg">
  <circle cx="12" cy="12" r="12" fill="#888888"/>
  <path d="M12.8817 11.9864L17.8557 7.0257C17.954 6.91123 18.0054 6.76398 17.9996 6.61338C17.9937 6.46278 17.9311 6.31992 17.8243 6.21335C17.7174 6.10677 17.5742 6.04434 17.4232 6.03852C17.2722 6.03271 17.1245 6.08393 17.0097 6.18197L12.0357 11.1427L7.06173 6.17598C6.94874 6.0633 6.79551 6 6.63573 6C6.47595 6 6.32271 6.0633 6.20973 6.17598C6.09674 6.28866 6.03327 6.44149 6.03327 6.60084C6.03327 6.7602 6.09674 6.91302 6.20973 7.0257L11.1897 11.9864L6.20973 16.9471C6.14692 17.0007 6.0959 17.0668 6.05989 17.141C6.02388 17.2152 6.00364 17.2961 6.00045 17.3785C5.99726 17.4609 6.01118 17.5431 6.04134 17.6199C6.07151 17.6967 6.11726 17.7664 6.17574 17.8247C6.23421 17.8831 6.30414 17.9287 6.38113 17.9588C6.45813 17.9889 6.54053 18.0027 6.62316 17.9996C6.70579 17.9964 6.78687 17.9762 6.86131 17.9403C6.93575 17.9044 7.00194 17.8535 7.05573 17.7908L12.0357 12.8301L17.0097 17.7908C17.1245 17.8889 17.2722 17.9401 17.4232 17.9343C17.5742 17.9285 17.7174 17.866 17.8243 17.7595C17.9311 17.6529 17.9937 17.51 17.9996 17.3594C18.0054 17.2088 17.954 17.0616 17.8557 16.9471L12.8817 11.9864Z" fill="white"/>
</svg>