<svg width="73" height="82" viewBox="0 0 73 82" fill="none" xmlns="http://www.w3.org/2000/svg">
<path d="M13.2868 4.856C6.37475 4.856 0.0387502 9.848 0.0387502 17.144V32.216C0.0387502 39.608 6.37475 44.504 13.2868 44.504H25.6708C32.6788 44.504 38.5348 39.608 38.5348 32.216V17.048C38.5348 9.752 32.6788 4.856 25.6708 4.856H13.2868ZM27.2068 28.664C27.2068 31.832 24.9028 34.328 21.5428 34.328H17.4148C14.0548 34.328 11.2708 31.832 11.2708 28.664V20.696C11.2708 17.336 14.0548 15.032 17.4148 15.032H21.5428C24.9028 15.032 27.2068 17.336 27.2068 20.696V28.664ZM62.9188 24.44V0.919998H51.3988V52.664H62.9188V35.192H72.3268V24.44H62.9188ZM34.1188 52.184C32.4868 55.256 30.6628 58.424 28.6468 61.784C25.1908 67.544 20.2948 74.936 14.4388 81.848H29.1268L40.0708 66.584C41.3188 68.6 42.4708 70.52 43.7188 72.344C45.9268 75.512 48.4228 79.256 50.3428 81.848H64.2628C59.3668 75.608 49.9587 63.416 45.9268 52.184H34.1188Z" fill="black"/>
</svg>
